<?xml version="1.0" encoding="utf-8"?>
<!-- Generator: Adobe Illustrator 17.0.0, SVG Export Plug-In . SVG Version: 6.00 Build 0)  -->
<!DOCTYPE svg PUBLIC "-//W3C//DTD SVG 1.1//EN" "http://www.w3.org/Graphics/SVG/1.1/DTD/svg11.dtd">
<svg version="1.1" id="Layer_1" xmlns="http://www.w3.org/2000/svg" xmlns:xlink="http://www.w3.org/1999/xlink" x="0px" y="0px"
	 width="1220.564px" height="250.974px" viewBox="0.684 40.468 1220.564 250.974"
	 enable-background="new 0.684 40.468 1220.564 250.974" xml:space="preserve">
<g>
	<g>
		<polyline fill="none" stroke="#FFFFFF" stroke-width="5.4308" points="155.044,107.204 106.056,107.204 54.938,107.204 
			29.379,151.577 3.821,195.595 29.379,239.968 54.938,284.341 106.056,284.341 153.979,284.341 		"/>
		<path fill="#FFFFFF" d="M222.491,182.461L222.491,182.461L222.491,182.461c2.485-2.84,8.875-12.424,24.139-40.113
			c27.334-49.698-4.97-101.88-4.97-101.88l-42.243,75.257l-18.459,32.659l-26.269,46.858c-7.455,2.485-16.684,5.68-26.269,9.585
			c-9.94,4.26-20.234,8.875-28.399,13.844c-9.23,5.68-16.684,11.004-19.524,16.684c-1.065,2.485-1.42,6.035-1.42,6.035
			c-3.195,3.55-3.55,10.294-1.42,13.844c5.325,8.875,17.039,4.26,17.039,4.26s-6.39-0.355-4.97-5.325
			c1.065-2.84,3.195-4.26,8.52-7.1c11.004-6.035,31.594-8.165,31.594-8.165l0,0c0.71,0,21.299,3.905,21.299,3.905l1.775,41.533
			l0.355,7.1h7.81l36.918-64.607l100.815-64.962L222.491,182.461z M89.727,238.193c-1.42,1.065-3.55,1.065-3.55,1.065l0,0
			c0,0-0.355-1.065,1.065-2.485c0,0.355,0,0.355,0.355,0.71c0.71,0.71,1.775,1.065,2.84,0.355c0.71-0.71,1.065-1.775,0.355-2.84
			l-0.355-0.355c1.065-0.355,1.42,0,1.42,0S90.792,237.128,89.727,238.193z"/>
	</g>
	<path fill="#FFFFFF" d="M196.932,113.594c-7.1-42.953-32.304-63.897-32.304-63.897L126.29,202.34
		c9.585-3.905,18.814-7.1,26.269-9.585L196.932,113.594z"/>
	<path fill="none" stroke="#FFFFFF" stroke-width="0.7129" stroke-linecap="round" stroke-miterlimit="10" d="M199.417,112.884"/>
</g>
<g>
	<g>
		<path fill="#FFFFFF" d="M328.46,131.409h33.502c5.704,0,10.69,0.713,14.968,1.78c4.632,1.426,8.197,3.206,11.408,5.704
			c3.206,2.493,5.704,5.345,7.484,8.91c1.78,3.565,2.493,7.484,2.493,12.116c0,5.345-1.067,9.982-3.206,13.901
			c-2.139,3.924-4.991,7.125-8.197,9.623c-3.565,2.493-7.484,4.632-12.116,5.704c-4.632,1.067-9.623,1.78-14.614,1.78h-9.264v32.789
			h-22.452v-92.307H328.46z M350.558,174.179h8.197c2.139,0,4.278-0.359,6.417-0.713c2.139-0.359,3.924-1.067,5.345-2.139
			c1.426-1.067,2.852-2.493,3.565-3.924c0.713-1.426,1.426-3.565,1.426-6.058c0-4.278-1.426-7.484-4.278-9.623
			c-2.852-2.139-6.771-3.206-11.408-3.206h-8.91v25.663L350.558,174.179L350.558,174.179z"/>
		<path fill="#FFFFFF" d="M410.436,131.409h61.658v17.107h-39.205v18.892h35.641v16.749h-35.641v22.452h39.918v17.107H410.79
			v-92.307H410.436z"/>
		<path fill="#FFFFFF" d="M487.775,131.409h36.712c5.345,0,9.982,0.713,13.901,2.139c3.924,1.426,7.484,3.565,9.982,6.058
			c2.852,2.493,4.632,5.704,6.058,9.264c1.426,3.565,2.139,7.125,2.139,11.408c0,3.924-0.713,7.125-1.78,9.982
			c-1.067,2.852-2.493,5.345-4.278,7.484c-1.78,2.139-3.565,3.924-5.704,5.345c-2.139,1.426-3.924,2.493-5.704,3.206l22.098,37.421
			h-25.663l-16.394-33.147h-9.264v33.147h-22.452v-92.307H487.775z M510.227,173.825h6.771c4.991,0,9.264-1.067,12.475-3.206
			c3.206-2.139,4.632-5.345,4.632-9.982c0-3.924-1.426-6.771-3.924-9.264c-2.493-2.139-6.058-3.206-11.049-3.206h-8.91v25.659
			H510.227z"/>
		<path fill="#FFFFFF" d="M573.315,131.409h61.658v17.107h-39.205v18.892h35.641v16.749h-35.641v22.452h39.918v17.107H573.67
			v-92.307H573.315z"/>
		<path fill="#FFFFFF" d="M694.138,129.629c5.704,0,11.049,0.359,15.681,1.426s8.556,2.139,12.116,3.924l-4.632,14.614
			c-3.206-1.78-6.771-2.852-10.336-3.565c-3.561-0.713-7.125-1.067-10.69-1.067c-3.924,0-7.484,0.713-11.049,1.78
			c-3.565,1.426-6.417,3.206-8.91,6.058c-2.493,2.852-4.632,6.058-6.058,10.336c-1.426,4.278-2.139,8.91-2.139,14.614
			c0,10.336,2.139,18.175,6.771,23.878c4.632,5.345,11.049,8.197,19.605,8.197c2.139,0,3.924,0,5.699-0.359
			c1.78-0.359,2.852-0.359,3.924-0.713v-19.959h-14.614v-16.394h35.999v47.403c-3.924,1.78-8.197,3.206-13.542,4.278
			c-5.345,1.067-11.049,1.78-17.466,1.78c-7.125,0-13.542-1.067-19.605-3.206c-6.058-2.139-11.408-4.991-15.681-9.264
			c-4.632-3.924-7.843-8.91-10.69-14.968c-2.493-6.058-3.924-12.829-3.924-20.314c0-7.843,1.426-14.614,3.924-20.672
			c2.493-6.058,6.058-11.049,10.69-14.968c4.632-3.919,9.623-7.125,15.681-9.264C680.596,130.696,687.362,129.629,694.138,129.629z"
			/>
		<path fill="#FFFFFF" d="M742.608,131.409h36.712c5.345,0,9.982,0.713,13.901,2.139c3.919,1.426,7.484,3.565,9.982,6.058
			c2.852,2.493,4.632,5.704,6.058,9.264c1.426,3.565,2.139,7.125,2.139,11.408c0,3.924-0.713,7.125-1.78,9.982
			c-1.067,2.852-2.493,5.345-4.278,7.484s-3.565,3.924-5.704,5.345c-2.139,1.426-3.924,2.493-5.704,3.206l22.098,37.421h-25.663
			l-16.394-33.147h-9.264v33.147h-22.452v-92.307H742.608z M764.706,173.825h6.771c4.991,0,9.264-1.067,12.475-3.206
			c3.211-2.139,4.632-5.345,4.632-9.982c0-3.924-1.426-6.771-3.924-9.264c-2.493-2.139-6.058-3.206-11.049-3.206h-8.91v25.659
			H764.706z"/>
		<path fill="#FFFFFF" d="M849.888,131.409v92.307h-22.452v-92.307H849.888z"/>
		<path fill="#FFFFFF" d="M869.488,131.409h20.672l20.318,31.008c3.565,5.704,7.125,11.408,10.336,17.107
			c3.206,5.704,6.058,11.049,7.843,15.681h0.359c-0.359-5.704-0.713-11.762-0.713-17.82c0-6.058,0-11.762,0-17.82v-28.511h20.672
			v92.666h-20.672l-21.385-31.363c-3.565-5.345-6.771-10.336-9.623-15.681c-2.852-5.345-5.345-11.049-7.484-17.107h-0.359
			c0.359,6.058,0.713,12.116,0.713,17.82c0,5.704,0,11.408,0,17.466v28.869h-20.672v-92.316H869.488z"/>
		<path fill="#FFFFFF" d="M967.504,131.409h61.658v17.107h-39.205v18.892h35.641v16.749h-35.641v22.452h39.918v17.107h-62.012
			v-92.307H967.504z"/>
	</g>
	<g>
		<path fill="#FFFFFF" d="M1048.413,131.041h20.3l16.285,49.94c1.413,4.234,2.607,8.035,3.582,11.399
			c0.975,3.364,2.065,7.165,3.149,11.399h0.433c1.085-3.473,2.17-7.274,3.259-11.29c1.085-4.015,2.17-7.817,3.259-11.399
			l15.743-49.94h20.3l7.598,92.496h-15.305c-0.761-9.772-1.518-19.649-2.279-29.639c-0.761-9.881-1.303-19.867-1.737-29.854
			l-0.542-16.937h-0.324c-1.627,6.08-3.364,12.269-5.21,18.454c-1.846,6.294-3.692,12.269-5.647,18.021l-13.026,39.844h-13.354
			l-13.245-39.949c-1.413-4.234-2.607-8.035-3.582-11.399c-0.975-3.473-1.955-6.622-2.821-9.444c-0.87-2.931-1.627-5.647-2.279-8.14
			c-0.652-2.498-1.304-4.995-1.955-7.384h-0.433c-0.324,8.359-0.761,16.827-1.304,25.405c-0.542,8.578-1.085,16.937-1.627,24.863
			l-1.737,26.162h-14.981L1048.413,131.041z"/>
		<path fill="#FFFFFF" d="M1190.301,129.629c10.095,0,18.888,1.846,26.38,5.538l-3.692,12.484
			c-4.125-1.955-7.926-3.364-11.399-4.344c-3.473-0.975-6.946-1.413-10.529-1.413c-5.319,0-9.444,1.085-12.484,3.364
			c-3.04,2.279-4.558,5.428-4.558,9.444c0,3.473,1.194,6.294,3.473,8.359c2.388,2.065,6.189,3.906,11.508,5.538l9.12,2.931
			c8.035,2.498,13.897,6.08,17.589,10.638c3.692,4.558,5.538,9.772,5.538,15.743c0,4.015-0.761,7.707-2.388,10.966
			c-1.518,3.364-3.801,6.189-6.732,8.468c-2.931,2.388-6.404,4.234-10.529,5.538c-4.125,1.303-8.687,1.955-13.678,1.955
			c-4.991,0-9.986-0.433-14.872-1.413c-4.995-0.975-9.772-2.498-14.439-4.777l3.692-12.374c4.234,2.065,8.359,3.582,12.374,4.667
			c4.016,0.975,8.25,1.518,12.593,1.518c5.319,0,9.553-1.085,12.917-3.364c3.364-2.279,4.995-5.538,4.995-9.986
			c0-3.149-1.194-5.971-3.473-8.359c-2.279-2.498-6.732-4.777-13.464-6.946l-8.687-2.821c-6.732-2.279-12.051-5.21-15.957-9.011
			c-3.906-3.801-5.752-9.011-5.752-15.743c0-8.14,2.712-14.658,8.25-19.539C1171.847,132.017,1179.772,129.629,1190.301,129.629z"/>
	</g>
</g>
</svg>
