<?xml version="1.0" encoding="utf-8"?>
<!-- Generator: Adobe Illustrator 25.2.0, SVG Export Plug-In . SVG Version: 6.00 Build 0)  -->
<svg version="1.1" id="Layer_1" xmlns="http://www.w3.org/2000/svg" xmlns:xlink="http://www.w3.org/1999/xlink" x="0px" y="0px"
	 viewBox="0 0 329.4 71.5" style="enable-background:new 0 0 329.4 71.5;" xml:space="preserve">
<style type="text/css">
	.st0{fill:#00467F;}
	.st1{fill:#849339;}
</style>
<g>
	<g>
		<g>
			<polygon class="st0" points="43.2,67.4 14.8,67.4 0,41.7 14.8,16.1 42.8,16.1 42.8,19.9 17,19.9 4.4,41.7 17,63.6 43.2,63.6 			
				"/>
			<path class="st0" d="M60.9,38.2L60.9,38.2L60.9,38.2c0.7-0.8,2.4-3.4,6.5-10.8C74.7,14,66,0,66,0L54.6,20.2L49.7,29l-7,12.5
				c-2,0.7-4.5,1.5-7.1,2.6c-2.7,1.1-5.4,2.4-7.6,3.7c-2.5,1.6-4.5,3-5.2,4.5c-0.3,0.7-0.4,1.6-0.4,1.6c-0.9,1-0.9,2.8-0.4,3.7
				c1.4,2.4,4.5,1.1,4.5,1.1s-1.7-0.1-1.3-1.4c0.2-0.7,0.8-1.1,2.3-1.9c2.9-1.6,8.5-2.2,8.5-2.2l0,0c0.2,0,5.7,1,5.7,1l0.5,11.3
				l0.1,1.9h2.1l9.9-17.3l27.1-17.4L60.9,38.2z M25.2,53.1c-0.3,0.3-1,0.3-1,0.3l0,0c0,0-0.1-0.3,0.3-0.7c0,0.1,0,0.1,0.1,0.2
				C24.8,53.1,25.1,53.2,25.2,53.1c0.3-0.3,0.4-0.6,0.2-0.8l-0.1-0.1c0.3-0.1,0.4,0,0.4,0S25.6,52.8,25.2,53.1z"/>
		</g>
		<path class="st1" d="M54.6,20.2C52.7,8.7,46,3,46,3L35.6,44.1c2.6-1.1,5.1-1.9,7.1-2.6L54.6,20.2z"/>
	</g>
	<g>
		<g>
			<path class="st0" d="M88.3,21.2h8.9c1.5,0,2.8,0.2,4,0.5s2.2,0.8,3.1,1.5s1.5,1.4,2,2.4c0.5,0.9,0.7,2,0.7,3.2
				c0,1.4-0.3,2.7-0.8,3.7c-0.5,1-1.3,1.9-2.2,2.6c-0.9,0.7-2,1.2-3.3,1.5c-1.2,0.3-2.6,0.5-3.9,0.5h-2.5v8.8h-6
				C88.3,45.9,88.3,21.2,88.3,21.2z M94.2,32.6h2.2c0.6,0,1.1-0.1,1.7-0.2c0.5-0.1,1-0.3,1.4-0.6c0.4-0.3,0.7-0.6,1-1.1
				c0.2-0.4,0.4-1,0.4-1.6c0-1.1-0.4-2-1.2-2.5c-0.8-0.6-1.8-0.9-3.1-0.9h-2.4V32.6z"/>
			<path class="st0" d="M110.2,21.2h16.5v4.5h-10.5v5.1h9.5v4.5h-9.5v6h10.6v4.5h-16.6C110.2,45.8,110.2,21.2,110.2,21.2z"/>
			<path class="st0" d="M130.9,21.2h9.8c1.4,0,2.7,0.2,3.7,0.6c1.1,0.4,2,1,2.7,1.7s1.3,1.5,1.6,2.5c0.4,0.9,0.5,1.9,0.5,3
				c0,1-0.2,1.9-0.5,2.7c-0.3,0.8-0.7,1.4-1.2,2s-1,1-1.5,1.4s-1.1,0.7-1.5,0.9l5.9,10h-6.9l-4.4-8.9h-2.5V46h-6V21.2H130.9z
				 M136.8,32.5h1.8c1.4,0,2.5-0.3,3.3-0.8c0.8-0.5,1.3-1.4,1.3-2.7c0-1-0.3-1.8-1-2.4c-0.7-0.6-1.7-0.9-2.9-0.9h-2.4v6.8H136.8z"/>
			<path class="st0" d="M153.7,21.2h16.5v4.5h-10.5v5.1h9.5v4.5h-9.5v6h10.6v4.5h-16.6V21.2z"/>
			<path class="st0" d="M186.1,20.7c1.6,0,3,0.1,4.2,0.4c1.2,0.3,2.3,0.6,3.2,1.1l-1.2,3.9c-0.9-0.4-1.8-0.8-2.8-1s-1.9-0.3-2.8-0.3
				c-1,0-2,0.2-2.9,0.5s-1.7,0.9-2.4,1.6c-0.7,0.7-1.2,1.6-1.6,2.7c-0.4,1.1-0.6,2.4-0.6,3.9c0,2.8,0.6,4.9,1.8,6.4s3,2.2,5.2,2.2
				c0.5,0,1,0,1.5-0.1c0.4-0.1,0.8-0.1,1-0.2v-5.3h-3.9v-4.4h9.6v12.7c-1,0.4-2.2,0.8-3.6,1.1s-2.9,0.4-4.7,0.4
				c-1.9,0-3.6-0.3-5.2-0.8c-1.6-0.5-3-1.4-4.2-2.5s-2.1-2.4-2.8-4s-1-3.4-1-5.5s0.3-3.9,1-5.5s1.6-3,2.8-4c1.2-1.1,2.6-1.9,4.2-2.5
				C182.5,21,184.2,20.7,186.1,20.7z"/>
			<path class="st0" d="M199,21.2h9.8c1.4,0,2.7,0.2,3.7,0.6c1.1,0.4,2,1,2.7,1.7s1.3,1.5,1.6,2.5c0.4,0.9,0.5,1.9,0.5,3
				c0,1-0.2,1.9-0.5,2.7c-0.3,0.8-0.7,1.4-1.2,2s-1,1-1.5,1.4s-1.1,0.7-1.5,0.9l5.9,10h-6.9l-4.4-8.9h-2.3V46h-6V21.2H199z
				 M204.9,32.5h1.8c1.4,0,2.5-0.3,3.3-0.8c0.8-0.5,1.3-1.4,1.3-2.7c0-1-0.3-1.8-1-2.4c-0.7-0.6-1.7-0.9-2.9-0.9h-2.5V32.5z"/>
			<path class="st0" d="M227.7,21.2v24.7h-6V21.2H227.7z"/>
			<path class="st0" d="M232.9,21.2h5.5l5.4,8.3c1,1.5,1.9,3,2.8,4.6s1.6,3,2.1,4.2h0.1c-0.1-1.6-0.2-3.1-0.2-4.7s0-3.2,0-4.7v-7.6
				h5.5V46h-5.5l-5.7-8.4c-0.9-1.4-1.8-2.8-2.6-4.2c-0.8-1.4-1.5-3-2-4.5h-0.1c0.1,1.6,0.2,3.2,0.2,4.7c0,1.5,0,3.1,0,4.6V46h-5.5
				V21.2z"/>
			<path class="st0" d="M259.2,21.2h16.5v4.5h-10.5v5.1h9.5v4.5h-9.5v6h10.6v4.5h-16.6V21.2z"/>
			<path class="st1" d="M281.6,21.2h5.4l4.4,13.3c0.4,1.1,0.7,2.1,1,3s0.6,1.9,0.8,3h0.1c0.3-0.9,0.6-1.9,0.9-3s0.6-2.1,0.9-3.1
				l4.2-13.3h5.4l2,24.7h-4.1c-0.2-2.6-0.4-5.2-0.6-7.9c-0.2-2.7-0.3-5.3-0.5-8l-0.2-4.5h-0.1c-0.4,1.6-0.9,3.3-1.4,4.9
				c-0.5,1.7-1,3.3-1.5,4.8l-3.4,10.8h-3.6l-3.5-10.7c-0.4-1.1-0.7-2.1-1-3.1c-0.3-0.9-0.5-1.8-0.7-2.5c-0.2-0.8-0.4-1.5-0.6-2.2
				s-0.4-1.3-0.5-2h-0.1c-0.1,2.2-0.2,4.5-0.4,6.8c-0.2,2.3-0.3,4.5-0.4,6.6l-0.5,7h-4L281.6,21.2z"/>
			<path class="st1" d="M319.4,20.8c2.7,0,5,0.5,7.1,1.5l-1,3.3c-1.1-0.5-2.1-0.9-3-1.2c-0.9-0.2-1.9-0.4-2.8-0.4
				c-1.4,0-2.5,0.3-3.3,0.9c-0.8,0.6-1.2,1.4-1.2,2.5c0,0.9,0.3,1.7,0.9,2.2s1.6,1,3.1,1.5l2.4,0.8c2.1,0.7,3.7,1.6,4.7,2.8
				s1.5,2.6,1.5,4.2c0,1.1-0.2,2.1-0.6,2.9c-0.4,0.9-1,1.6-1.8,2.3c-0.8,0.6-1.7,1.1-2.8,1.5c-1.1,0.4-2.3,0.5-3.6,0.5
				s-2.7-0.1-4-0.4c-1.3-0.2-2.6-0.7-3.9-1.3l1-3.3c1.1,0.5,2.2,1,3.3,1.2c1.1,0.3,2.2,0.4,3.4,0.4c1.4,0,2.6-0.3,3.5-0.9
				s1.3-1.5,1.3-2.7c0-0.8-0.3-1.6-0.9-2.2c-0.6-0.7-1.8-1.3-3.6-1.8l-2.3-0.7c-1.8-0.6-3.2-1.4-4.3-2.4c-1-1-1.5-2.4-1.5-4.2
				c0-2.2,0.7-3.9,2.2-5.2C314.5,21.5,316.6,20.8,319.4,20.8z"/>
		</g>
		<g>
			<path class="st0" d="M93.5,63.3c0.6,0,1.1-0.1,1.5-0.2s0.8-0.2,1-0.4l0.6,2.2c-0.3,0.2-0.7,0.3-1.3,0.5c-0.6,0.2-1.3,0.2-2.2,0.2
				c-1,0-1.9-0.2-2.7-0.5s-1.5-0.7-2.1-1.3s-1-1.3-1.4-2.1c-0.3-0.8-0.5-1.7-0.5-2.7s0.2-1.9,0.5-2.7c0.3-0.8,0.8-1.5,1.3-2.1
				s1.3-1,2.1-1.3c0.8-0.3,1.8-0.5,2.8-0.5c0.9,0,1.6,0.1,2.2,0.2s1,0.3,1.3,0.5l-0.7,2.2c-0.3-0.2-0.7-0.3-1.1-0.5
				c-0.4-0.1-0.9-0.2-1.4-0.2s-1,0.1-1.5,0.2c-0.5,0.2-0.9,0.4-1.2,0.7c-0.3,0.3-0.6,0.8-0.8,1.3c-0.2,0.5-0.3,1.2-0.3,1.9
				c0,0.7,0.1,1.3,0.3,1.9c0.2,0.5,0.5,1,0.8,1.3s0.8,0.6,1.2,0.8C92.5,63.2,93,63.3,93.5,63.3z"/>
			<path class="st0" d="M103.9,52.5c0.9,0,1.7,0.1,2.5,0.5c0.8,0.3,1.4,0.7,2,1.3c0.6,0.6,1,1.2,1.3,2.1s0.5,1.7,0.5,2.8
				c0,1-0.2,1.9-0.5,2.7c-0.3,0.8-0.8,1.5-1.3,2.1c-0.6,0.6-1.2,1-2,1.3s-1.6,0.5-2.5,0.5s-1.7-0.1-2.5-0.4s-1.4-0.7-2-1.3
				c-0.6-0.6-1-1.2-1.3-2s-0.5-1.7-0.5-2.8c0-1,0.2-1.9,0.5-2.7c0.3-0.8,0.8-1.5,1.3-2.1c0.6-0.6,1.3-1,2-1.3S103,52.5,103.9,52.5z
				 M100.8,59.1c0,0.7,0.1,1.3,0.2,1.9c0.2,0.5,0.4,1,0.7,1.3c0.3,0.3,0.6,0.6,1,0.8c0.4,0.2,0.8,0.3,1.2,0.3c0.4,0,0.8-0.1,1.2-0.3
				c0.4-0.2,0.7-0.4,1-0.8s0.5-0.8,0.7-1.3s0.2-1.2,0.2-1.9c0-0.7-0.1-1.4-0.2-1.9s-0.4-1-0.7-1.3c-0.3-0.3-0.6-0.6-1-0.8
				c-0.4-0.2-0.8-0.3-1.2-0.3c-0.4,0-0.8,0.1-1.2,0.3c-0.4,0.2-0.7,0.5-1,0.8s-0.5,0.8-0.7,1.3S100.8,58.4,100.8,59.1z"/>
			<path class="st0" d="M111.9,52.7h2.8l2.8,4.2c0.5,0.8,1,1.5,1.4,2.3c0.5,0.8,0.8,1.5,1.1,2.2l0,0c-0.1-0.8-0.1-1.6-0.1-2.4
				s0-1.6,0-2.4v-3.9h2.8v12.6h-2.8L117,61c-0.5-0.7-0.9-1.4-1.3-2.2c-0.4-0.7-0.7-1.5-1-2.3l0,0c0.1,0.8,0.1,1.6,0.1,2.4
				s0,1.6,0,2.4v4h-2.9V52.7z"/>
			<path class="st0" d="M124.9,52.7h2.8l2.8,4.2c0.5,0.8,1,1.5,1.4,2.3c0.5,0.8,0.8,1.5,1.1,2.2l0,0c-0.1-0.8-0.1-1.6-0.1-2.4
				s0-1.6,0-2.4v-3.9h2.8v12.6h-2.8L130,61c-0.5-0.7-0.9-1.4-1.3-2.2c-0.4-0.7-0.7-1.5-1-2.3l0,0c0.1,0.8,0.1,1.6,0.1,2.4
				s0,1.6,0,2.4v4h-2.9V52.7z"/>
			<path class="st0" d="M137.8,52.7h8.4V55h-5.3v2.6h4.8v2.3h-4.8V63h5.4v2.3h-8.5V52.7z"/>
			<path class="st0" d="M154.3,63.3c0.6,0,1.1-0.1,1.5-0.2s0.8-0.2,1-0.4l0.6,2.2c-0.3,0.2-0.7,0.3-1.3,0.5s-1.3,0.2-2.2,0.2
				c-1,0-1.9-0.2-2.7-0.5s-1.5-0.7-2.1-1.3s-1-1.3-1.4-2.1c-0.3-0.8-0.5-1.7-0.5-2.7s0.2-1.9,0.5-2.7c0.3-0.8,0.8-1.5,1.3-2.1
				s1.3-1,2.1-1.3s1.8-0.5,2.8-0.5c0.9,0,1.6,0.1,2.2,0.2s1,0.3,1.3,0.5l-0.7,2.2c-0.3-0.2-0.7-0.3-1.1-0.5
				c-0.4-0.1-0.9-0.2-1.4-0.2s-1,0.1-1.5,0.2c-0.5,0.2-0.9,0.4-1.2,0.7c-0.3,0.3-0.6,0.8-0.8,1.3s-0.3,1.2-0.3,1.9
				c0,0.7,0.1,1.3,0.3,1.9c0.2,0.5,0.5,1,0.8,1.3s0.8,0.6,1.2,0.8C153.3,63.2,153.8,63.3,154.3,63.3z"/>
			<path class="st0" d="M167.6,52.7v2.4h-3.4v10.2h-3V55.1h-3.4v-2.4H167.6z"/>
			<path class="st1" d="M173.7,52.7h2.8l2.2,6.8c0.2,0.6,0.4,1.1,0.5,1.6s0.3,1,0.4,1.6h0.1c0.1-0.5,0.3-1,0.5-1.5s0.3-1.1,0.5-1.6
				l2.1-6.8h2.8l1,12.6h-2.1c-0.1-1.3-0.2-2.7-0.3-4c-0.1-1.4-0.2-2.7-0.2-4.1l-0.1-2.3l0,0c-0.2,0.8-0.5,1.7-0.7,2.5
				c-0.2,0.9-0.5,1.7-0.8,2.5l-1.8,5.4h-1.8L177,60c-0.2-0.6-0.4-1.1-0.5-1.6s-0.3-0.9-0.4-1.3c-0.1-0.4-0.2-0.8-0.3-1.1
				c-0.1-0.3-0.2-0.7-0.3-1h-0.1c0,1.1-0.1,2.3-0.2,3.5s-0.2,2.3-0.2,3.4l-0.2,3.6h-2L173.7,52.7z"/>
			<path class="st1" d="M188.8,56.8c0.6-0.3,1.2-0.6,1.8-0.8c0.6-0.2,1.2-0.2,1.9-0.2c0.5,0,1,0.1,1.5,0.2c0.4,0.1,0.8,0.3,1.2,0.6
				s0.6,0.6,0.8,1.1c0.2,0.4,0.3,1,0.3,1.6v6.1h-1.7l-0.2-1h-0.1c-0.4,0.4-0.8,0.7-1.3,0.9c-0.5,0.2-1,0.3-1.6,0.3
				c-0.9,0-1.7-0.3-2.3-0.8s-0.9-1.2-0.9-2c0-0.5,0.1-1,0.3-1.4s0.5-0.7,0.9-1s0.8-0.4,1.4-0.6c0.5-0.1,1.1-0.2,1.8-0.2h1.6v-0.7
				c0-0.6-0.2-1-0.5-1.3s-0.8-0.3-1.3-0.3c-0.3,0-0.7,0.1-1.2,0.2s-0.9,0.3-1.5,0.6L188.8,56.8z M194,61.1h-1.3
				c-0.9,0-1.6,0.2-2,0.5s-0.6,0.7-0.6,1.1c0,0.3,0,0.5,0.1,0.7s0.2,0.3,0.4,0.4s0.3,0.2,0.5,0.2s0.4,0.1,0.6,0.1
				c0.4,0,0.8-0.1,1.2-0.3c0.4-0.2,0.8-0.5,1-0.9v-1.8H194z"/>
			<path class="st1" d="M200.2,65.4h-2.1V56h1.6l0.3,1.3c0.5-0.5,1-0.8,1.5-1.1c0.5-0.2,1.1-0.4,1.8-0.4c1,0,1.8,0.3,2.3,0.8
				s0.8,1.3,0.8,2.3v6.4h-2.1v-6.2c0-0.5-0.1-1-0.4-1.3c-0.3-0.3-0.7-0.5-1.3-0.5c-0.4,0-0.9,0.1-1.3,0.3c-0.4,0.2-0.8,0.5-1.2,0.9
				L200.2,65.4L200.2,65.4z"/>
			<path class="st1" d="M208.7,56.8c0.6-0.3,1.2-0.6,1.8-0.8c0.6-0.2,1.2-0.2,1.9-0.2c0.5,0,1,0.1,1.5,0.2c0.4,0.1,0.8,0.3,1.2,0.6
				s0.6,0.6,0.8,1.1c0.2,0.4,0.3,1,0.3,1.6v6.1h-1.7l-0.2-1h-0.1c-0.4,0.4-0.8,0.7-1.3,0.9c-0.5,0.2-1,0.3-1.6,0.3
				c-0.9,0-1.7-0.3-2.3-0.8s-0.9-1.2-0.9-2c0-0.5,0.1-1,0.3-1.4s0.5-0.7,0.9-1s0.8-0.4,1.4-0.6c0.5-0.1,1.1-0.2,1.8-0.2h1.6v-0.7
				c0-0.6-0.2-1-0.5-1.3s-0.8-0.3-1.3-0.3c-0.3,0-0.7,0.1-1.2,0.2s-0.9,0.3-1.5,0.6L208.7,56.8z M213.9,61.1h-1.3
				c-0.9,0-1.6,0.2-2,0.5s-0.6,0.7-0.6,1.1c0,0.3,0,0.5,0.1,0.7s0.2,0.3,0.4,0.4s0.3,0.2,0.5,0.2s0.4,0.1,0.6,0.1
				c0.4,0,0.8-0.1,1.2-0.3c0.4-0.2,0.8-0.5,1-0.9v-1.8H213.9z"/>
			<path class="st1" d="M217.9,59.1c0-0.5,0.1-1,0.3-1.4s0.5-0.8,0.8-1s0.8-0.5,1.2-0.7c0.5-0.1,1-0.2,1.6-0.2
				c0.4,0,0.8,0.1,1.3,0.2h4.1v1.4h-0.7l-1.5-0.2c0.2,0.3,0.4,0.5,0.5,0.9c0.1,0.3,0.2,0.7,0.2,1c0,0.5-0.1,1-0.3,1.4
				s-0.5,0.8-0.8,1c-0.3,0.3-0.8,0.5-1.2,0.7c-0.5,0.1-1,0.2-1.6,0.2c-0.2,0-0.4,0-0.5,0c-0.2,0-0.3,0-0.5-0.1
				c-0.3,0.1-0.4,0.2-0.5,0.4c-0.1,0.1-0.2,0.3-0.2,0.5c0,0.3,0.1,0.5,0.3,0.6s0.5,0.2,0.8,0.2h2.4c1,0,1.9,0.2,2.4,0.7
				s0.9,1.2,0.9,2c0,0.5-0.1,1-0.3,1.4s-0.6,0.8-1,1.1c-0.4,0.3-1,0.5-1.6,0.7s-1.3,0.2-2.1,0.2c-1.4,0-2.5-0.2-3.3-0.7
				s-1.2-1.2-1.2-2.2c0-0.5,0.2-0.9,0.5-1.2c0.3-0.3,0.7-0.6,1.2-0.8c-0.2-0.2-0.4-0.3-0.6-0.6c-0.1-0.2-0.2-0.5-0.2-0.9
				s0.1-0.8,0.4-1.1c0.3-0.3,0.6-0.5,1-0.7c-0.5-0.2-0.9-0.6-1.2-1C218.1,60.4,217.9,59.8,217.9,59.1z M220.2,65.5
				c-0.6,0.3-0.9,0.7-0.9,1.3c0,0.5,0.2,0.9,0.7,1.2s1.1,0.4,2,0.4c0.5,0,1,0,1.3-0.2c0.4-0.1,0.7-0.2,0.9-0.4s0.4-0.3,0.5-0.5
				s0.2-0.4,0.2-0.6c0-0.5-0.2-0.8-0.5-1s-0.8-0.3-1.4-0.3L220.2,65.5L220.2,65.5z M223.6,59.1c0-0.6-0.2-1.1-0.5-1.4
				s-0.8-0.5-1.3-0.5c-0.6,0-1,0.2-1.3,0.5s-0.5,0.8-0.5,1.4s0.2,1.1,0.5,1.4s0.8,0.5,1.3,0.5c0.6,0,1-0.2,1.3-0.5
				S223.6,59.7,223.6,59.1z"/>
			<path class="st1" d="M236.8,61h-6.6v0.1c0,1,0.3,1.7,0.8,2.2c0.6,0.5,1.3,0.7,2.2,0.7c0.5,0,1,0,1.4-0.1s0.8-0.2,1.2-0.4l0.4,1.5
				c-0.4,0.2-0.8,0.3-1.4,0.4s-1.1,0.2-1.8,0.2s-1.3-0.1-1.9-0.3s-1.2-0.5-1.6-0.9c-0.5-0.4-0.8-0.9-1.1-1.5s-0.4-1.3-0.4-2.2
				c0-0.7,0.1-1.4,0.3-2s0.5-1.1,0.9-1.6c0.4-0.4,0.9-0.8,1.5-1s1.2-0.4,1.9-0.4c0.6,0,1.2,0.1,1.7,0.3s0.9,0.5,1.3,0.9
				c0.4,0.4,0.6,0.8,0.8,1.3s0.3,1.1,0.3,1.8v1H236.8z M234.7,59.6c0-0.3,0-0.6-0.1-0.9s-0.2-0.5-0.4-0.7s-0.4-0.4-0.6-0.5
				c-0.3-0.1-0.6-0.2-0.9-0.2c-0.7,0-1.2,0.2-1.6,0.6c-0.4,0.4-0.7,1-0.8,1.7H234.7z"/>
			<path class="st1" d="M240.4,65.4h-2.1V56h1.6l0.3,1.3c0.4-0.4,0.9-0.8,1.4-1c0.5-0.3,1.1-0.4,1.8-0.4c0.7,0,1.2,0.1,1.7,0.4
				c0.4,0.3,0.8,0.6,1,1.1c0.5-0.5,1-0.9,1.5-1.1c0.6-0.3,1.2-0.4,1.8-0.4c1,0,1.7,0.3,2.2,0.8s0.8,1.3,0.8,2.3v6.5h-2.1v-6.2
				c0-0.6-0.1-1-0.4-1.3s-0.7-0.5-1.2-0.5c-0.9,0-1.6,0.4-2.4,1.1v6.8h-2.1v-6.2c0-0.6-0.1-1-0.4-1.3s-0.7-0.5-1.2-0.5
				c-0.9,0-1.6,0.4-2.4,1.2v6.8H240.4z"/>
			<path class="st1" d="M262.8,61h-6.6v0.1c0,1,0.3,1.7,0.8,2.2c0.6,0.5,1.3,0.7,2.2,0.7c0.5,0,1,0,1.4-0.1s0.8-0.2,1.2-0.4l0.4,1.5
				c-0.4,0.2-0.8,0.3-1.4,0.4s-1.1,0.2-1.8,0.2c-0.7,0-1.3-0.1-1.9-0.3s-1.2-0.5-1.6-0.9c-0.5-0.4-0.8-0.9-1.1-1.5
				c-0.3-0.6-0.4-1.3-0.4-2.2c0-0.7,0.1-1.4,0.3-2c0.2-0.6,0.5-1.1,0.9-1.6c0.4-0.4,0.9-0.8,1.5-1s1.2-0.4,1.9-0.4
				c0.6,0,1.2,0.1,1.7,0.3s0.9,0.5,1.3,0.9s0.6,0.8,0.8,1.3c0.2,0.5,0.3,1.1,0.3,1.8v1H262.8z M260.7,59.6c0-0.3,0-0.6-0.1-0.9
				s-0.2-0.5-0.4-0.7s-0.4-0.4-0.6-0.5c-0.3-0.1-0.6-0.2-0.9-0.2c-0.7,0-1.2,0.2-1.6,0.6s-0.7,1-0.8,1.7H260.7z"/>
			<path class="st1" d="M266.4,65.4h-2.1V56h1.6l0.3,1.3c0.5-0.5,1-0.8,1.5-1.1c0.5-0.2,1.1-0.4,1.8-0.4c1,0,1.8,0.3,2.3,0.8
				s0.8,1.3,0.8,2.3v6.4h-2.1v-6.2c0-0.5-0.1-1-0.4-1.3s-0.7-0.5-1.3-0.5c-0.4,0-0.9,0.1-1.3,0.3c-0.4,0.2-0.8,0.5-1.2,0.9v6.9
				H266.4z"/>
			<path class="st1" d="M280,57.4h-2.7v5.1c0,0.5,0.1,0.8,0.3,0.9c0.2,0.2,0.5,0.2,0.9,0.2c0.3,0,0.5,0,0.9-0.1
				c0.3-0.1,0.6-0.1,0.8-0.2l0.3,1.5c-0.3,0.1-0.6,0.2-1,0.3c-0.4,0.1-0.9,0.1-1.3,0.1c-1,0-1.7-0.2-2.2-0.6c-0.4-0.4-0.7-1-0.7-1.9
				v-5.4h-1.4v-1.5h1.4v-3h2v3h2.7L280,57.4L280,57.4z"/>
			<path class="st1" d="M289.8,52.5c1.4,0,2.6,0.3,3.6,0.8l-0.5,1.7c-0.6-0.3-1.1-0.5-1.6-0.6s-1-0.2-1.4-0.2
				c-0.7,0-1.3,0.2-1.7,0.5c-0.4,0.3-0.6,0.7-0.6,1.3c0,0.5,0.2,0.9,0.5,1.1c0.3,0.3,0.8,0.5,1.6,0.8l1.2,0.4
				c1.1,0.3,1.9,0.8,2.4,1.5s0.8,1.3,0.8,2.2c0,0.5-0.1,1-0.3,1.5c-0.2,0.5-0.5,0.8-0.9,1.2c-0.4,0.3-0.9,0.6-1.4,0.8
				c-0.6,0.2-1.2,0.3-1.9,0.3c-0.7,0-1.4-0.1-2-0.2c-0.7-0.1-1.3-0.3-2-0.7l0.5-1.7c0.6,0.3,1.1,0.5,1.7,0.6
				c0.5,0.1,1.1,0.2,1.7,0.2c0.7,0,1.3-0.2,1.8-0.5s0.7-0.8,0.7-1.4c0-0.4-0.2-0.8-0.5-1.1c-0.3-0.3-0.9-0.6-1.8-0.9l-1.2-0.4
				c-0.9-0.3-1.6-0.7-2.2-1.2c-0.5-0.5-0.8-1.2-0.8-2.2c0-1.1,0.4-2,1.1-2.7C287.3,52.9,288.4,52.5,289.8,52.5z"/>
			<path class="st1" d="M302,55.9h2.1v9.4h-1.6l-0.3-1.1h-0.1c-0.3,0.3-0.8,0.7-1.3,0.9s-1.1,0.4-1.8,0.4c-1,0-1.8-0.3-2.4-0.8
				c-0.6-0.6-0.9-1.4-0.9-2.5v-6.3h2.1V62c0,0.7,0.2,1.2,0.5,1.5s0.8,0.4,1.2,0.4c0.5,0,1-0.1,1.4-0.3c0.4-0.2,0.8-0.5,1.1-0.9
				L302,55.9L302,55.9z"/>
			<path class="st1" d="M307.5,53.6c-0.4,0-0.6-0.1-0.9-0.3c-0.2-0.2-0.3-0.5-0.3-0.8s0.1-0.6,0.3-0.8c0.2-0.2,0.5-0.3,0.9-0.3
				c0.3,0,0.6,0.1,0.9,0.3c0.2,0.2,0.3,0.5,0.3,0.8s-0.1,0.6-0.3,0.8C308.1,53.5,307.8,53.6,307.5,53.6z M306.4,65.4V56h2.1v9.4
				H306.4z"/>
			<path class="st1" d="M316.1,57.4h-2.7v5.1c0,0.5,0.1,0.8,0.3,0.9c0.2,0.2,0.5,0.2,0.9,0.2c0.3,0,0.5,0,0.9-0.1
				c0.3-0.1,0.6-0.1,0.8-0.2l0.3,1.5c-0.3,0.1-0.6,0.2-1,0.3c-0.4,0.1-0.9,0.1-1.3,0.1c-1,0-1.7-0.2-2.2-0.6c-0.4-0.4-0.7-1-0.7-1.9
				v-5.4h-1.5v-1.5h1.4v-3h2v3h2.7v1.6H316.1z"/>
			<path class="st1" d="M326,61h-6.6v0.1c0,1,0.3,1.7,0.8,2.2c0.6,0.5,1.3,0.7,2.2,0.7c0.5,0,1,0,1.4-0.1s0.8-0.2,1.2-0.4l0.4,1.5
				c-0.4,0.2-0.8,0.3-1.4,0.4s-1.1,0.2-1.8,0.2c-0.7,0-1.3-0.1-1.9-0.3s-1.2-0.5-1.6-0.9c-0.5-0.4-0.8-0.9-1.1-1.5
				c-0.3-0.6-0.4-1.3-0.4-2.2c0-0.7,0.1-1.4,0.3-2c0.2-0.6,0.5-1.1,0.9-1.6c0.4-0.4,0.9-0.8,1.5-1s1.2-0.4,1.9-0.4
				c0.6,0,1.2,0.1,1.7,0.3s0.9,0.5,1.3,0.9s0.6,0.8,0.8,1.3c0.2,0.5,0.3,1.1,0.3,1.8v1H326z M323.9,59.6c0-0.3,0-0.6-0.1-0.9
				s-0.2-0.5-0.4-0.7s-0.4-0.4-0.6-0.5c-0.3-0.1-0.6-0.2-0.9-0.2c-0.7,0-1.2,0.2-1.6,0.6s-0.7,1-0.8,1.7H323.9z"/>
		</g>
	</g>
</g>
</svg>
